{
    "asset" : {
        "generator" : "Khronos glTF Blender I/O v3.3.32",
        "version" : "2.0"
    },
    "extensionsUsed" : [
        "KHR_materials_specular",
        "KHR_materials_ior"
    ],
    "scene" : 0,
    "scenes" : [
        {
            "name" : "Scene",
            "nodes" : [
                0,
                1
            ]
        }
    ],
    "nodes" : [
        {
            "mesh" : 0,
            "name" : "bottom",
            "translation" : [
                -2,
                0,
                2
            ]
        },
        {
            "mesh" : 1,
            "name" : "top",
            "translation" : [
                -2,
                4,
                2
            ]
        }
    ],
    "materials" : [
        {
            "doubleSided" : true,
            "extensions" : {
                "KHR_materials_specular" : {
                    "specularColorFactor" : [
                        7.156962196015174,
                        0.31034407979494905,
                        0.38062507759876174
                    ]
                },
                "KHR_materials_ior" : {
                    "ior" : 1.4500000476837158
                }
            },
            "name" : "BottomMaterial",
            "pbrMetallicRoughness" : {
                "baseColorFactor" : [
                    0.8000000715255737,
                    0.03469003736972809,
                    0.042545996606349945,
                    1
                ],
                "metallicFactor" : 0.07874015718698502,
                "roughnessFactor" : 0.4173228442668915
            }
        },
        {
            "doubleSided" : true,
            "extensions" : {
                "KHR_materials_specular" : {
                    "specularColorFactor" : [
                        0.45124094100380624,
                        1.697436740817823,
                        12.175232876495622
                    ]
                },
                "KHR_materials_ior" : {
                    "ior" : 1.4500000476837158
                }
            },
            "name" : "TopMaterial",
            "pbrMetallicRoughness" : {
                "baseColorFactor" : [
                    0.0296497642993927,
                    0.1115337610244751,
                    0.8000000715255737,
                    1
                ],
                "metallicFactor" : 0.07874015718698502,
                "roughnessFactor" : 0.4094488024711609
            }
        }
    ],
    "meshes" : [
        {
            "name" : "bottomM",
            "primitives" : [
                {
                    "attributes" : {
                        "POSITION" : 0,
                        "NORMAL" : 1,
                        "TEXCOORD_0" : 2
                    },
                    "indices" : 3,
                    "material" : 0
                }
            ]
        },
        {
            "name" : "topM",
            "primitives" : [
                {
                    "attributes" : {
                        "POSITION" : 4,
                        "NORMAL" : 5,
                        "TEXCOORD_0" : 6
                    },
                    "indices" : 7,
                    "material" : 1
                }
            ]
        }
    ],
    "accessors" : [
        {
            "bufferView" : 0,
            "componentType" : 5126,
            "count" : 485,
            "max" : [
                3,
                3,
                3
            ],
            "min" : [
                -3,
                -1,
                -3
            ],
            "type" : "VEC3"
        },
        {
            "bufferView" : 1,
            "componentType" : 5126,
            "count" : 485,
            "type" : "VEC3"
        },
        {
            "bufferView" : 2,
            "componentType" : 5126,
            "count" : 485,
            "type" : "VEC2"
        },
        {
            "bufferView" : 3,
            "componentType" : 5123,
            "count" : 2436,
            "type" : "SCALAR"
        },
        {
            "bufferView" : 4,
            "componentType" : 5126,
            "count" : 509,
            "max" : [
                3,
                1,
                3
            ],
            "min" : [
                -3,
                -3,
                -3
            ],
            "type" : "VEC3"
        },
        {
            "bufferView" : 5,
            "componentType" : 5126,
            "count" : 509,
            "type" : "VEC3"
        },
        {
            "bufferView" : 6,
            "componentType" : 5126,
            "count" : 509,
            "type" : "VEC2"
        },
        {
            "bufferView" : 7,
            "componentType" : 5123,
            "count" : 2580,
            "type" : "SCALAR"
        }
    ],
    "bufferViews" : [
        {
            "buffer" : 0,
            "byteLength" : 5820,
            "byteOffset" : 0,
            "target" : 34962
        },
        {
            "buffer" : 0,
            "byteLength" : 5820,
            "byteOffset" : 5820,
            "target" : 34962
        },
        {
            "buffer" : 0,
            "byteLength" : 3880,
            "byteOffset" : 11640,
            "target" : 34962
        },
        {
            "buffer" : 0,
            "byteLength" : 4872,
            "byteOffset" : 15520,
            "target" : 34963
        },
        {
            "buffer" : 0,
            "byteLength" : 6108,
            "byteOffset" : 20392,
            "target" : 34962
        },
        {
            "buffer" : 0,
            "byteLength" : 6108,
            "byteOffset" : 26500,
            "target" : 34962
        },
        {
            "buffer" : 0,
            "byteLength" : 4072,
            "byteOffset" : 32608,
            "target" : 34962
        },
        {
            "buffer" : 0,
            "byteLength" : 5160,
            "byteOffset" : 36680,
            "target" : 34963
        }
    ],
    "buffers" : [
        {
            "byteLength" : 41840,
            "uri" : "data:application/octet-stream;base64,"
        }
    ]
}
